<svg xmlns="http://www.w3.org/2000/svg" viewBox="20 23 60 56"><g fill="white"><polygon points="50.7,26.2 49.1,26.2 49.1,55.5 47.9,55.5 47.9,63.3 49.1,63.3 49.1,75.6 50.7,75.6 50.7,63.3 51.9,63.3 51.9,55.5 50.7,55.5"/><polygon points="38.3,26.2 36.8,26.2 36.8,51.6 35.6,51.6 35.6,59.4 36.8,59.4 36.8,75.6 38.3,75.6 38.3,59.4 39.5,59.4 39.5,51.6 38.3,51.6"/><polygon points="26,26.2 24.4,26.2 24.4,40.6 23.2,40.6 23.2,48.4 24.4,48.4 24.4,75.6 26,75.6 26,48.4 27.2,48.4 27.2,40.6 26,40.6"/><polygon points="63,26.2 61.5,26.2 61.5,43.8 60.3,43.8 60.3,51.6 61.5,51.6 61.5,75.6 63,75.6 63,51.6 64.2,51.6 64.2,43.8 63,43.8"/><polygon points="76.5,36 75.3,36 75.3,26.2 73.8,26.2 73.8,36 72.6,36 72.6,43.8 73.8,43.8 73.8,75.6 75.3,75.6 75.3,43.8 76.5,43.8"/></g></svg>