<svg xmlns="http://www.w3.org/2000/svg" viewBox="0 0 100 100">
  <!-- Back head — white -->
  <path fill="rgba(255,255,255,0.25)" d="M73.5,44.2L79,58.9c0.4,0.9-0.2,1.6-1.2,1.6H74v11.1c0,1.9-2.1,3.9-4,3.9h-9v8h19v-8h8.9c1.8,0,3.1-2,3.1-3.9V60.5h4.7c1,0,1.6-0.7,1.2-1.6l-5.6-15c0-16-13.1-28.8-29.2-28.4c-2.3,0.1-8.6,0.4-10.8,1C64.5,19.9,73.5,31,73.5,44.2z"/>
  <!-- Front head — white -->
  <path fill="rgba(255,255,255,0.4)" d="M58.9,44.1c0-12.2-7.6-22.5-18.3-26.6c-4.6,3.4-7.5,8.8-7.5,14.9c0,1.4,0.2,2.8,0.5,4.2c5.2,1.4,8.9,6.3,8.6,11.9C41.9,54.4,37,59.3,31,59.5c-6.7,0.3-12.3-5.1-12.3-11.7c0-3.7,1.7-7,4.4-9.2c-0.1-0.9-0.1-1.7-0.1-2.6c0-8,3.3-15.2,8.6-20.4c-0.6,0-1.2,0-1.8,0C14.3,16.1,1.8,29,2,44.5C2.1,53.7,6.6,61.9,13.5,67c0.9,0.6,1.5,1.7,1.5,2.7v13.7h31v-8h9.6c1.8,0,3.4-1.7,3.4-3.4V60.5h2.3c1.7,0,2.9-1.5,2.3-3.1L58.9,44.1z"/>
  <!-- Headphone ear cup accent — blue circle at the ear position -->
  <circle fill="#0c51da" opacity="0.5" cx="31" cy="47.8" r="12"/>
</svg>
