<svg xmlns="http://www.w3.org/2000/svg" xmlns:xlink="http://www.w3.org/1999/xlink" xmlns:serif="http://www.serif.com/" viewBox="0 0 100 100" version="1.1" xml:space="preserve" style="" x="0px" y="0px" fill-rule="evenodd" clip-rule="evenodd" stroke-linejoin="round" stroke-miterlimit="2"><rect serif:id="Page 24" x="0" y="0.5" width="100" height="100" style="" fill="none"/><circle cx="7.045" cy="50.5" r="2.045"/><circle cx="7.045" cy="25.955" r="2.045"/><circle cx="7.045" cy="75.045" r="2.045"/><circle cx="56.136" cy="50.5" r="2.045"/><circle cx="56.136" cy="25.955" r="2.045"/><circle cx="56.136" cy="75.045" r="2.045"/><circle cx="31.591" cy="50.5" r="2.045"/><circle cx="31.591" cy="25.955" r="2.045"/><circle cx="31.591" cy="75.045" r="2.045"/><circle cx="80.682" cy="50.5" r="2.045"/><circle cx="80.682" cy="25.955" r="2.045"/><circle cx="80.682" cy="75.045" r="2.045"/><circle cx="7.045" cy="13.682" r="2.045"/><circle cx="7.045" cy="62.773" r="2.045"/><circle cx="7.045" cy="38.227" r="2.045"/><circle cx="7.045" cy="87.318" r="2.045"/><circle cx="56.136" cy="13.682" r="2.045"/><circle cx="56.136" cy="62.773" r="2.045"/><circle cx="56.136" cy="87.318" r="2.045"/><circle cx="31.591" cy="13.682" r="2.045"/><circle cx="31.591" cy="62.773" r="2.045"/><circle cx="31.591" cy="38.227" r="2.045"/><circle cx="31.591" cy="87.318" r="2.045"/><circle cx="80.682" cy="13.682" r="2.045"/><circle cx="80.682" cy="62.773" r="2.045"/><circle cx="80.682" cy="38.227" r="2.045"/><circle cx="80.682" cy="87.318" r="2.045"/><circle cx="7.045" cy="7.545" r="2.045"/><circle cx="7.045" cy="56.636" r="2.045"/><circle cx="7.045" cy="32.091" r="2.045"/><circle cx="7.045" cy="81.182" r="2.045"/><circle cx="56.136" cy="7.545" r="2.045"/><circle cx="56.136" cy="56.636" r="2.045"/><circle cx="56.136" cy="32.091" r="2.045"/><circle cx="56.136" cy="81.182" r="2.045"/><circle cx="31.591" cy="7.545" r="2.045"/><circle cx="31.591" cy="56.636" r="2.045"/><circle cx="31.591" cy="32.091" r="2.045"/><circle cx="31.591" cy="81.182" r="2.045"/><circle cx="80.682" cy="7.545" r="2.045"/><circle cx="80.682" cy="56.636" r="2.045"/><circle cx="80.682" cy="32.091" r="2.045"/><circle cx="80.682" cy="81.182" r="2.045"/><circle cx="7.045" cy="19.818" r="2.045"/><circle cx="7.045" cy="68.909" r="2.045"/><circle cx="7.045" cy="44.364" r="2.045"/><circle cx="7.045" cy="93.455" r="2.045"/><circle cx="56.136" cy="19.818" r="2.045"/><circle cx="56.136" cy="68.909" r="2.045"/><circle cx="56.136" cy="93.455" r="2.045"/><circle cx="31.591" cy="19.818" r="2.045"/><circle cx="31.591" cy="68.909" r="2.045"/><circle cx="31.591" cy="44.364" r="2.045"/><circle cx="31.591" cy="93.455" r="2.045"/><circle cx="80.682" cy="19.818" r="2.045"/><circle cx="80.682" cy="68.909" r="2.045"/><circle cx="80.682" cy="44.364" r="2.045"/><circle cx="80.682" cy="93.455" r="2.045"/><circle cx="13.182" cy="50.5" r="2.045"/><circle cx="13.182" cy="25.955" r="2.045"/><circle cx="13.182" cy="75.045" r="2.045"/><circle cx="62.273" cy="50.5" r="2.045"/><circle cx="62.273" cy="25.955" r="2.045"/><circle cx="62.273" cy="75.045" r="2.045"/><circle cx="37.727" cy="50.5" r="2.045"/><circle cx="37.727" cy="25.955" r="2.045"/><circle cx="37.727" cy="75.045" r="2.045"/><circle cx="86.818" cy="50.5" r="2.045"/><circle cx="86.818" cy="25.955" r="2.045"/><circle cx="86.818" cy="75.045" r="2.045"/><circle cx="13.182" cy="13.682" r="2.045"/><circle cx="13.182" cy="62.773" r="2.045"/><circle cx="13.182" cy="38.227" r="2.045"/><circle cx="13.182" cy="87.318" r="2.045"/><circle cx="62.273" cy="13.682" r="2.045"/><circle cx="62.273" cy="62.773" r="2.045"/><circle cx="62.273" cy="38.227" r="2.045"/><circle cx="62.273" cy="87.318" r="2.045"/><circle cx="37.727" cy="13.682" r="2.045"/><circle cx="37.727" cy="62.773" r="2.045"/><circle cx="37.727" cy="38.227" r="2.045"/><circle cx="37.727" cy="87.318" r="2.045"/><circle cx="86.818" cy="13.682" r="2.045"/><circle cx="86.818" cy="62.773" r="2.045"/><circle cx="86.818" cy="38.227" r="2.045"/><circle cx="86.818" cy="87.318" r="2.045"/><circle cx="13.182" cy="7.545" r="2.045"/><circle cx="13.182" cy="56.636" r="2.045"/><circle cx="13.182" cy="32.091" r="2.045"/><circle cx="13.182" cy="81.182" r="2.045"/><circle cx="62.273" cy="7.545" r="2.045"/><circle cx="62.273" cy="56.636" r="2.045"/><circle cx="62.273" cy="32.091" r="2.045"/><circle cx="62.273" cy="81.182" r="2.045"/><circle cx="37.727" cy="7.545" r="2.045"/><circle cx="37.727" cy="56.636" r="2.045"/><circle cx="37.727" cy="32.091" r="2.045"/><circle cx="37.727" cy="81.182" r="2.045"/><circle cx="86.818" cy="7.545" r="2.045"/><circle cx="86.818" cy="56.636" r="2.045"/><circle cx="86.818" cy="32.091" r="2.045"/><circle cx="86.818" cy="81.182" r="2.045"/><circle cx="13.182" cy="19.818" r="2.045"/><circle cx="13.182" cy="68.909" r="2.045"/><circle cx="13.182" cy="44.364" r="2.045"/><circle cx="13.182" cy="93.455" r="2.045"/><circle cx="62.273" cy="19.818" r="2.045"/><circle cx="62.273" cy="68.909" r="2.045"/><circle cx="62.273" cy="93.455" r="2.045"/><circle cx="37.727" cy="19.818" r="2.045"/><circle cx="37.727" cy="68.909" r="2.045"/><circle cx="37.727" cy="93.455" r="2.045"/><circle cx="86.818" cy="19.818" r="2.045"/><circle cx="86.818" cy="68.909" r="2.045"/><circle cx="86.818" cy="44.364" r="2.045"/><circle cx="86.818" cy="93.455" r="2.045"/><circle cx="19.318" cy="50.5" r="2.045"/><circle cx="19.318" cy="25.955" r="2.045"/><circle cx="19.318" cy="75.045" r="2.045"/><circle cx="68.409" cy="50.5" r="2.045"/><circle cx="68.409" cy="25.955" r="2.045"/><circle cx="68.409" cy="75.045" r="2.045"/><circle cx="43.864" cy="50.5" r="2.045"/><circle cx="43.864" cy="25.955" r="2.045"/><circle cx="43.864" cy="75.045" r="2.045"/><circle cx="92.955" cy="50.5" r="2.045"/><circle cx="92.955" cy="25.955" r="2.045"/><circle cx="92.955" cy="75.045" r="2.045"/><circle cx="25.455" cy="50.5" r="2.045"/><circle cx="25.455" cy="25.955" r="2.045"/><circle cx="25.455" cy="75.045" r="2.045"/><circle cx="74.545" cy="50.5" r="2.045"/><circle cx="74.545" cy="25.955" r="2.045"/><circle cx="74.545" cy="75.045" r="2.045"/><circle cx="50" cy="25.955" r="2.045"/><circle cx="50" cy="75.045" r="2.045"/><circle cx="19.318" cy="13.682" r="2.045"/><circle cx="19.318" cy="62.773" r="2.045"/><circle cx="19.318" cy="38.227" r="2.045"/><circle cx="19.318" cy="87.318" r="2.045"/><circle cx="68.409" cy="13.682" r="2.045"/><circle cx="68.409" cy="62.773" r="2.045"/><circle cx="68.409" cy="38.227" r="2.045"/><circle cx="68.409" cy="87.318" r="2.045"/><circle cx="43.864" cy="13.682" r="2.045"/><circle cx="43.864" cy="62.773" r="2.045"/><circle cx="43.864" cy="87.318" r="2.045"/><circle cx="92.955" cy="13.682" r="2.045"/><circle cx="92.955" cy="62.773" r="2.045"/><circle cx="92.955" cy="38.227" r="2.045"/><circle cx="92.955" cy="87.318" r="2.045"/><circle cx="25.455" cy="13.682" r="2.045"/><circle cx="25.455" cy="62.773" r="2.045"/><circle cx="25.455" cy="38.227" r="2.045"/><circle cx="25.455" cy="87.318" r="2.045"/><circle cx="74.545" cy="13.682" r="2.045"/><circle cx="74.545" cy="62.773" r="2.045"/><circle cx="74.545" cy="38.227" r="2.045"/><circle cx="74.545" cy="87.318" r="2.045"/><circle cx="50" cy="13.682" r="2.045"/><circle cx="50" cy="87.318" r="2.045"/><circle cx="19.318" cy="7.545" r="2.045"/><circle cx="19.318" cy="56.636" r="2.045"/><circle cx="19.318" cy="32.091" r="2.045"/><circle cx="19.318" cy="81.182" r="2.045"/><circle cx="68.409" cy="7.545" r="2.045"/><circle cx="68.409" cy="56.636" r="2.045"/><circle cx="68.409" cy="32.091" r="2.045"/><circle cx="68.409" cy="81.182" r="2.045"/><circle cx="43.864" cy="7.545" r="2.045"/><circle cx="43.864" cy="56.636" r="2.045"/><circle cx="43.864" cy="32.091" r="2.045"/><circle cx="43.864" cy="81.182" r="2.045"/><circle cx="92.955" cy="7.545" r="2.045"/><circle cx="92.955" cy="56.636" r="2.045"/><circle cx="92.955" cy="32.091" r="2.045"/><circle cx="92.955" cy="81.182" r="2.045"/><circle cx="25.455" cy="7.545" r="2.045"/><circle cx="25.455" cy="56.636" r="2.045"/><circle cx="25.455" cy="32.091" r="2.045"/><circle cx="25.455" cy="81.182" r="2.045"/><circle cx="74.545" cy="7.545" r="2.045"/><circle cx="74.545" cy="56.636" r="2.045"/><circle cx="74.545" cy="32.091" r="2.045"/><circle cx="74.545" cy="81.182" r="2.045"/><circle cx="50" cy="7.545" r="2.045"/><circle cx="50" cy="81.182" r="2.045"/><circle cx="19.318" cy="19.818" r="2.045"/><circle cx="19.318" cy="68.909" r="2.045"/><circle cx="19.318" cy="44.364" r="2.045"/><circle cx="19.318" cy="93.455" r="2.045"/><circle cx="68.409" cy="19.818" r="2.045"/><circle cx="68.409" cy="68.909" r="2.045"/><circle cx="68.409" cy="44.364" r="2.045"/><circle cx="68.409" cy="93.455" r="2.045"/><circle cx="43.864" cy="19.818" r="2.045"/><circle cx="43.864" cy="68.909" r="2.045"/><circle cx="43.864" cy="93.455" r="2.045"/><circle cx="92.955" cy="19.818" r="2.045"/><circle cx="92.955" cy="68.909" r="2.045"/><circle cx="92.955" cy="44.364" r="2.045"/><circle cx="92.955" cy="93.455" r="2.045"/><circle cx="25.455" cy="19.818" r="2.045"/><circle cx="25.455" cy="68.909" r="2.045"/><circle cx="25.455" cy="44.364" r="2.045"/><circle cx="25.455" cy="93.455" r="2.045"/><circle cx="74.545" cy="19.818" r="2.045"/><circle cx="74.545" cy="68.909" r="2.045"/><circle cx="74.545" cy="44.364" r="2.045"/><circle cx="74.545" cy="93.455" r="2.045"/><circle cx="50" cy="19.818" r="2.045"/><circle cx="50" cy="93.455" r="2.045"/></svg>